<svg width="27" height="35" viewBox="0 0 27 35" fill="none" xmlns="http://www.w3.org/2000/svg">
<path d="M17.6224 9.73755H8.56577L5.97558 2.83397C5.87987 2.62015 5.84779 2.37783 5.88402 2.14226C5.92026 1.90669 6.0229 1.69017 6.17703 1.52419C6.33116 1.35822 6.52872 1.25145 6.74098 1.21943C6.95324 1.1874 7.16912 1.23179 7.35722 1.34613L8.75294 2.19617C9.1346 2.4284 9.57339 2.51649 10.0037 2.44727C10.4339 2.37804 10.8325 2.15522 11.1399 1.81213L11.6712 1.21925C12.0486 0.798223 12.5604 0.561707 13.0941 0.561707C13.6277 0.561707 14.1396 0.798223 14.517 1.21925L15.0483 1.81213C15.3556 2.15522 15.7542 2.37804 16.1845 2.44727C16.6148 2.51649 17.0535 2.4284 17.4352 2.19617L18.8309 1.34613C19.019 1.23179 19.2349 1.1874 19.4472 1.21943C19.6594 1.25145 19.857 1.35822 20.0111 1.52419C20.1652 1.69017 20.2679 1.90669 20.3041 2.14226C20.3404 2.37783 20.3083 2.62015 20.2126 2.83397L17.6224 9.73755ZM19.3834 34.4413H6.67395C5.32739 34.4413 4.01946 33.939 2.9581 33.0143C1.89675 32.0896 1.14287 30.7955 0.816333 29.3377L0.801239 29.2704C0.236705 26.7522 0.284108 24.1116 0.938564 21.6207C1.59302 19.1299 2.83086 16.8787 4.52451 15.0994L7.49407 11.9833H19.5695L22.2392 15.1611C23.7354 16.942 24.8075 19.113 25.3574 21.4757C25.9073 23.8383 25.9174 26.3172 25.3869 28.6853L25.241 29.3377C24.9145 30.7955 24.1606 32.0896 23.0992 33.0143C22.0379 33.939 20.7299 34.4413 19.3834 34.4413Z" fill="#F8A839"/>
<path d="M13.0338 29.9335C16.3684 29.9335 19.0716 26.9171 19.0716 23.1962C19.0716 19.4752 16.3684 16.4588 13.0338 16.4588C9.69928 16.4588 6.99609 19.4752 6.99609 23.1962C6.99609 26.9171 9.69928 29.9335 13.0338 29.9335Z" fill="#FEDC55"/>
<path d="M18.6918 9.56905H7.65888C7.062 9.56905 6.57812 10.109 6.57812 10.775V10.9334C6.57812 11.5994 7.062 12.1394 7.65888 12.1394H18.6918C19.2887 12.1394 19.7726 11.5994 19.7726 10.9334V10.775C19.7726 10.109 19.2887 9.56905 18.6918 9.56905Z" fill="#E1762E"/>
<path d="M13.1589 15.9106C11.8653 15.9106 10.6007 16.3387 9.52502 17.1407C8.44938 17.9427 7.61102 19.0826 7.11596 20.4163C6.62089 21.75 6.49136 23.2175 6.74374 24.6334C6.99612 26.0492 7.61908 27.3497 8.53384 28.3705C9.4486 29.3913 10.6141 30.0864 11.8829 30.368C13.1517 30.6497 14.4668 30.5051 15.662 29.9527C16.8572 29.4003 17.8788 28.4648 18.5975 27.2645C19.3162 26.0642 19.6998 24.653 19.6998 23.2095C19.6977 21.2744 19.0079 19.4193 17.7817 18.051C16.5555 16.6827 14.893 15.913 13.1589 15.9106ZM13.1589 29.3854C12.0643 29.3854 10.9942 29.0232 10.0841 28.3446C9.17393 27.6659 8.46455 26.7014 8.04565 25.5729C7.62675 24.4444 7.51714 23.2026 7.7307 22.0046C7.94425 20.8066 8.47137 19.7061 9.24539 18.8424C10.0194 17.9787 11.0056 17.3905 12.0792 17.1522C13.1528 16.9139 14.2656 17.0362 15.2769 17.5036C16.2883 17.9711 17.1526 18.7627 17.7608 19.7783C18.3689 20.7939 18.6935 21.988 18.6935 23.2095C18.6917 24.8468 18.108 26.4164 17.0704 27.5742C16.0329 28.732 14.6262 29.3833 13.1589 29.3854ZM22.7378 14.7754L20.0943 11.6313C20.2076 11.394 20.2677 11.1297 20.2694 10.8609C20.2694 10.4142 20.1104 9.98581 19.8273 9.66993C19.5442 9.35406 19.1603 9.1766 18.7599 9.1766H18.5094L20.7937 3.086C20.9375 2.76519 20.9859 2.4015 20.9316 2.0479C20.8774 1.6943 20.7234 1.36927 20.492 1.12015C20.2607 0.871027 19.9641 0.710835 19.6455 0.662906C19.3269 0.614976 19.0029 0.681814 18.7207 0.853682L17.325 1.70259C17.0385 1.87558 16.7097 1.94103 16.3873 1.88926C16.0649 1.83748 15.7659 1.67124 15.5348 1.41513L15.0045 0.82224C14.7709 0.561485 14.4935 0.354639 14.1882 0.213515C13.883 0.0723919 13.5558 -0.000244141 13.2254 -0.000244141C12.8949 -0.000244141 12.5677 0.0723919 12.2625 0.213515C11.9572 0.354639 11.6799 0.561485 11.4462 0.82224L10.9159 1.41513C10.6845 1.67077 10.3856 1.83669 10.0633 1.88844C9.74103 1.9402 9.41235 1.87505 9.12573 1.70259L7.72498 0.850313C7.4455 0.682181 7.12562 0.616676 6.81084 0.663116C6.49607 0.709556 6.20244 0.865575 5.97172 1.10898C5.741 1.35238 5.58493 1.67078 5.52573 2.01887C5.46653 2.36696 5.5072 2.72702 5.64196 3.04782L7.94033 9.17323H7.68976C7.37908 9.17133 7.07552 9.27695 6.82086 9.47555C6.56621 9.67415 6.373 9.95596 6.26783 10.2822C6.16265 10.6084 6.1507 10.963 6.23361 11.2971C6.31651 11.6312 6.49021 11.9284 6.73077 12.1478L4.31567 14.6889C2.55173 16.5466 1.26423 18.8961 0.58616 21.4947C-0.09191 24.0933 -0.13596 26.8468 0.458562 29.4707C0.810668 31.051 1.6269 32.4541 2.77705 33.4562C3.92719 34.4584 5.34498 35.0018 6.80422 34.9999H19.5137C20.9728 35.0019 22.3905 34.4586 23.5406 33.4567C24.6907 32.4547 25.507 31.0519 25.8593 29.4719L26.0062 28.8195C26.5622 26.3606 26.5542 23.7851 25.983 21.3306C25.4118 18.8761 24.2957 16.6217 22.7378 14.7754ZM6.55567 2.57958C6.50749 2.47259 6.49123 2.35122 6.50925 2.23319C6.52728 2.11515 6.57864 2.00664 6.65585 1.9235C6.73306 1.84035 6.83207 1.78692 6.93842 1.77102C7.04477 1.75512 7.15289 1.77757 7.24699 1.83509L8.64272 2.684C9.11975 2.97252 9.66726 3.08232 10.2045 2.9972C10.7417 2.91209 11.2402 2.63656 11.6264 2.21126L12.1527 1.61388C12.2928 1.45736 12.4593 1.3332 12.6425 1.24848C12.8257 1.16377 13.022 1.12017 13.2203 1.12017C13.4186 1.12017 13.615 1.16377 13.7982 1.24848C13.9814 1.3332 14.1478 1.45736 14.288 1.61388L14.8183 2.20677C15.2038 2.63315 15.7019 2.90994 16.2392 2.99628C16.7764 3.08261 17.3243 2.97392 17.802 2.68625L19.1967 1.83622C19.2901 1.77611 19.3987 1.75222 19.5056 1.76827C19.6124 1.78432 19.7115 1.8394 19.7874 1.92493C19.8692 2.01222 19.9223 2.12777 19.938 2.25288C19.9537 2.37799 19.9311 2.50536 19.8739 2.61438L17.4176 9.17323H9.03316L6.55567 2.57958ZM7.68976 10.2961H18.7589C18.8924 10.2961 19.0204 10.3553 19.1147 10.4606C19.2091 10.5659 19.2621 10.7087 19.2621 10.8576C19.2621 11.0065 19.2091 11.1493 19.1147 11.2546C19.0204 11.3599 18.8924 11.419 18.7589 11.419H7.68976C7.55632 11.419 7.42834 11.3599 7.33398 11.2546C7.23962 11.1493 7.18661 11.0065 7.18661 10.8576C7.18661 10.7087 7.23962 10.5659 7.33398 10.4606C7.42834 10.3553 7.55632 10.2961 7.68976 10.2961ZM25.0332 28.5466L24.8862 29.199C24.5882 30.5366 23.897 31.7243 22.9232 32.5722C21.9493 33.4202 20.7489 33.8796 19.5137 33.877H6.80422C5.55965 33.8751 4.35181 33.4061 3.3751 32.5453C2.39838 31.6846 1.70959 30.4822 1.41957 29.1316C0.87843 26.7101 0.925069 24.1715 1.55469 21.7768C2.18431 19.3821 3.37419 17.2178 5.00196 15.5064L7.82561 12.5419H19.4815L22.0032 15.5423C23.4465 17.2514 24.4807 19.3388 25.0102 21.6116C25.5398 23.8844 25.5477 26.2695 25.0332 28.5466ZM12.6558 20.4022H13.6621C13.929 20.4022 14.1849 20.5205 14.3736 20.7311C14.5624 20.9417 14.6684 21.2273 14.6684 21.5251C14.6684 21.674 14.7214 21.8168 14.8157 21.9221C14.9101 22.0274 15.0381 22.0866 15.1715 22.0866C15.305 22.0866 15.4329 22.0274 15.5273 21.9221C15.6217 21.8168 15.6747 21.674 15.6747 21.5251C15.6747 20.9295 15.4626 20.3583 15.0852 19.9371C14.7078 19.5159 14.1959 19.2793 13.6621 19.2793V18.7179C13.6621 18.569 13.6091 18.4261 13.5147 18.3209C13.4204 18.2156 13.2924 18.1564 13.1589 18.1564C13.0255 18.1564 12.8975 18.2156 12.8032 18.3209C12.7088 18.4261 12.6558 18.569 12.6558 18.7179V19.2793C12.122 19.2793 11.6101 19.5159 11.2327 19.9371C10.8553 20.3583 10.6432 20.9295 10.6432 21.5251C10.6432 22.1207 10.8553 22.692 11.2327 23.1131C11.6101 23.5343 12.122 23.7709 12.6558 23.7709H13.6621C13.929 23.7709 14.1849 23.8892 14.3736 24.0998C14.5624 24.3104 14.6684 24.596 14.6684 24.8938C14.6684 25.1916 14.5624 25.4772 14.3736 25.6878C14.1849 25.8984 13.929 26.0167 13.6621 26.0167H12.6558C12.3889 26.0167 12.133 25.8984 11.9442 25.6878C11.7555 25.4772 11.6495 25.1916 11.6495 24.8938C11.6495 24.7449 11.5965 24.6021 11.5021 24.4968C11.4078 24.3915 11.2798 24.3323 11.1464 24.3323C11.0129 24.3323 10.8849 24.3915 10.7906 24.4968C10.6962 24.6021 10.6432 24.7449 10.6432 24.8938C10.6432 25.4894 10.8553 26.0606 11.2327 26.4818C11.6101 26.903 12.122 27.1396 12.6558 27.1396V27.701C12.6558 27.8499 12.7088 27.9928 12.8032 28.098C12.8975 28.2033 13.0255 28.2625 13.1589 28.2625C13.2924 28.2625 13.4204 28.2033 13.5147 28.098C13.6091 27.9928 13.6621 27.8499 13.6621 27.701V27.1396C14.1959 27.1396 14.7078 26.903 15.0852 26.4818C15.4626 26.0606 15.6747 25.4894 15.6747 24.8938C15.6747 24.2982 15.4626 23.727 15.0852 23.3058C14.7078 22.8846 14.1959 22.648 13.6621 22.648H12.6558C12.3889 22.648 12.133 22.5297 11.9442 22.3191C11.7555 22.1085 11.6495 21.8229 11.6495 21.5251C11.6495 21.2273 11.7555 20.9417 11.9442 20.7311C12.133 20.5205 12.3889 20.4022 12.6558 20.4022Z" fill="black"/>
</svg>
