<svg width="60" height="44" viewBox="0 0 60 44" fill="none" xmlns="http://www.w3.org/2000/svg">
<path d="M47.3668 25.1334C54.3072 25.1334 59.9335 19.5071 59.9335 12.5667C59.9335 5.62631 54.3072 0 47.3668 0C40.4264 0 34.8001 5.62631 34.8001 12.5667C34.8001 19.5071 40.4264 25.1334 47.3668 25.1334Z" fill="#FBDE53"/>
<path d="M48.3333 19.3338H44.4666C44.2102 19.3338 43.9644 19.2319 43.7831 19.0507C43.6018 18.8694 43.5 18.6235 43.5 18.3671C43.5 18.1107 43.6018 17.8649 43.7831 17.6836C43.9644 17.5023 44.2102 17.4005 44.4666 17.4005H48.3333C48.5897 17.4005 48.8356 17.2986 49.0168 17.1173C49.1981 16.936 49.3 16.6902 49.3 16.4338V14.5004C49.3 14.2441 49.1981 13.9982 49.0168 13.8169C48.8356 13.6356 48.5897 13.5338 48.3333 13.5338H46.4C45.6308 13.5338 44.8932 13.2282 44.3493 12.6844C43.8055 12.1405 43.5 11.4029 43.5 10.6338V8.70042C43.5 7.93129 43.8055 7.19366 44.3493 6.64981C44.8932 6.10595 45.6308 5.80042 46.4 5.80042H50.2666C50.523 5.80042 50.7689 5.90226 50.9502 6.08355C51.1315 6.26483 51.2333 6.51071 51.2333 6.76708C51.2333 7.02346 51.1315 7.26934 50.9502 7.45062C50.7689 7.63191 50.523 7.73375 50.2666 7.73375H46.4C46.1436 7.73375 45.8977 7.8356 45.7164 8.01688C45.5351 8.19817 45.4333 8.44405 45.4333 8.70042V10.6338C45.4333 10.8901 45.5351 11.136 45.7164 11.3173C45.8977 11.4986 46.1436 11.6004 46.4 11.6004H48.3333C49.1024 11.6004 49.8401 11.906 50.3839 12.4498C50.9278 12.9937 51.2333 13.7313 51.2333 14.5004V16.4338C51.2333 17.2029 50.9278 17.9405 50.3839 18.4844C49.8401 19.0283 49.1024 19.3338 48.3333 19.3338Z" fill="#8C8890"/>
<path d="M47.367 6.76615C47.1106 6.76615 46.8647 6.66431 46.6835 6.48302C46.5022 6.30174 46.4003 6.05586 46.4003 5.79948V3.86614C46.4003 3.60977 46.5022 3.36389 46.6835 3.18261C46.8647 3.00132 47.1106 2.89948 47.367 2.89948C47.6234 2.89948 47.8693 3.00132 48.0505 3.18261C48.2318 3.36389 48.3337 3.60977 48.3337 3.86614V5.79948C48.3337 6.05586 48.2318 6.30174 48.0505 6.48302C47.8693 6.66431 47.6234 6.76615 47.367 6.76615ZM47.367 22.2329C47.1106 22.2329 46.8647 22.131 46.6835 21.9497C46.5022 21.7685 46.4003 21.5226 46.4003 21.2662V19.3329C46.4003 19.0765 46.5022 18.8306 46.6835 18.6493C46.8647 18.468 47.1106 18.3662 47.367 18.3662C47.6234 18.3662 47.8693 18.468 48.0505 18.6493C48.2318 18.8306 48.3337 19.0765 48.3337 19.3329V21.2662C48.3337 21.5226 48.2318 21.7685 48.0505 21.9497C47.8693 22.131 47.6234 22.2329 47.367 22.2329Z" fill="#8C8890"/>
<path d="M15.4667 40.5999H11.6V19.3331H15.4667C15.9795 19.3331 16.4712 19.5368 16.8338 19.8994C17.1964 20.262 17.4001 20.7537 17.4001 21.2665V38.6665C17.4001 39.1793 17.1964 39.671 16.8338 40.0336C16.4712 40.3962 15.9795 40.5999 15.4667 40.5999Z" fill="#E23342"/>
<path d="M59.9335 35.1882C59.9351 35.6385 59.7937 36.0778 59.5296 36.4426C59.2656 36.8074 58.8925 37.079 58.4642 37.2182L39.6335 43.5015C37.7433 44.1322 35.7048 44.166 33.7948 43.5982L17.4001 38.6682V21.2681L32.5961 25.8308C33.7905 26.1882 34.8379 26.9209 35.5832 27.9204C36.3284 28.9198 36.7317 30.1328 36.7334 31.3795V34.8015L37.6808 34.7242L57.6135 33.0615H57.7875C58.0681 33.0602 58.3461 33.1142 58.6058 33.2204C58.8655 33.3266 59.1017 33.4829 59.301 33.6804C59.5002 33.8779 59.6587 34.1127 59.7672 34.3714C59.8757 34.6301 59.9323 34.9076 59.9335 35.1882Z" fill="#FFD9AA"/>
<path d="M36.7334 35.7674L26.6994 31.8234C26.5705 31.7841 26.4512 31.7184 26.3492 31.6303C26.2472 31.5422 26.1647 31.4338 26.1071 31.3119C26.0495 31.1901 26.018 31.0576 26.0146 30.9229C26.0113 30.7881 26.0361 30.6542 26.0876 30.5296C26.139 30.4051 26.2159 30.2927 26.3134 30.1996C26.4108 30.1065 26.5267 30.0348 26.6535 29.9892C26.7803 29.9435 26.9152 29.9249 27.0496 29.9344C27.1841 29.944 27.315 29.9816 27.434 30.0447L36.7334 33.7567V35.7674Z" fill="#FCC37A"/>
<path d="M11.6 19.3331H0V40.5999H11.6V19.3331Z" fill="#ED456A"/>
</svg>
