<svg width="29" height="30" viewBox="0 0 29 30" fill="none" xmlns="http://www.w3.org/2000/svg">
<path d="M0.592732 29.3295C1.15094 29.9344 3.45014 28.8795 5.26492 28.0336C6.62477 27.4016 12.0666 25.1688 14.7716 24.0106C15.5019 23.6983 16.5642 23.2901 17.329 22.2843C18.0077 21.3892 19.8077 17.5876 16.1831 13.7367C12.5044 9.8268 8.71496 10.9063 7.29855 11.9096C6.46494 12.4998 5.78624 13.8301 5.48132 14.5064C4.19278 17.3638 2.35587 22.5991 1.60832 24.6573C1.05995 26.1745 0.0394462 28.7295 0.592732 29.3295Z" fill="#FFC107"/>
<path d="M5.11804 15.3653C5.15247 15.7931 5.23854 16.489 5.53362 17.8292C5.73527 18.7489 6.06478 19.7128 6.33281 20.3497C7.13692 22.2653 8.26562 23.0375 9.40908 23.6572C11.3517 24.7096 12.6722 24.9064 12.6722 24.9064L11.0886 25.5531C11.0886 25.5531 10.1296 25.3539 8.82137 24.7096C7.57463 24.0949 6.27626 23.0547 5.32706 21.0186C4.9164 20.1358 4.67788 19.2801 4.54017 18.6014C4.37049 17.7604 4.34344 17.2833 4.34344 17.2833L5.11804 15.3653Z" fill="#FF8F00"/>
<path d="M3.17244 20.3526C3.17244 20.3526 3.36917 21.9485 4.68722 23.9625C6.2315 26.3183 8.38808 26.7043 8.38808 26.7043L6.95446 27.2945C6.95446 27.2945 5.35362 26.8052 3.83147 24.7273C2.88228 23.4313 2.6167 21.8821 2.6167 21.8821L3.17244 20.3526Z" fill="#FF8F00"/>
<path d="M1.8075 24.1337C1.8075 24.1337 2.16652 25.5108 2.95341 26.5387C3.89031 27.7657 5.08295 28.1223 5.08295 28.1223L3.98375 28.6092C3.98375 28.6092 3.15014 28.4346 2.23783 27.2788C1.54438 26.4009 1.34766 25.3927 1.34766 25.3927L1.8075 24.1337Z" fill="#FF8F00"/>
<path opacity="0.44" d="M1.20919 27.6337C1.16001 27.5231 1.16001 27.3977 1.21165 27.2895L7.47484 14.3008L8.50518 18.1738L1.91494 27.6928C1.73789 27.9583 1.33952 27.9239 1.20919 27.6337Z" fill="#FFFDE7"/>
<path d="M9.00192 19.4731C11.9282 22.8961 15.2602 22.4682 16.3692 21.6026C17.4807 20.7346 18.3586 17.7517 15.4446 14.3853C12.3905 10.859 8.93307 11.8648 8.13387 12.6271C7.33468 13.3894 6.31664 16.3329 9.00192 19.4731Z" fill="url(#paint0_linear_1_1730)"/>
<path d="M19.0524 20.8817C17.9852 19.9866 17.4172 20.1464 16.6549 20.4637C15.6712 20.8719 14.1245 21.1743 12.0245 20.4637L12.6565 18.9415C13.9032 19.362 14.8057 19.1579 15.5852 18.6981C16.5885 18.1079 17.9606 17.2989 20.0951 19.0915C20.9852 19.8391 21.8975 20.3358 22.5664 20.1096C23.0533 19.9473 23.3115 19.2218 23.4418 18.644C23.4541 18.5923 23.4738 18.4448 23.4886 18.3144C23.6066 17.412 23.8033 15.4644 25.2541 14.4685C26.8058 13.4037 28.4362 13.4037 28.4362 13.4037L28.7312 16.3349C27.9812 16.2243 27.4599 16.3767 27.0197 16.6202C25.3623 17.5423 26.8058 21.0833 24.2263 22.2735C21.7451 23.4268 19.7164 21.4374 19.0524 20.8817Z" fill="#03A9F4"/>
<path d="M9.92515 17.1445L8.85792 16.1879C10.8178 13.9994 10.3014 12.3911 9.92515 11.2206C9.84892 10.9846 9.77761 10.7608 9.73089 10.5469C9.56367 9.78947 9.52924 9.13044 9.58088 8.55503C8.82842 7.61813 8.49644 6.63697 8.47431 6.57057C8.01693 5.18613 8.3612 3.83611 9.15055 2.5697C10.7465 0 13.6359 0 13.6359 0L14.5998 2.57954C13.867 2.55003 11.4645 2.58692 10.7268 3.75005C9.79482 5.21564 10.4071 6.12057 10.4514 6.22385C10.6309 5.99024 10.8129 5.80335 10.9752 5.65827C12.153 4.61317 13.176 4.46317 13.8277 4.52219C14.5605 4.58858 15.2244 4.95744 15.699 5.56236C16.2179 6.22631 16.4318 7.08943 16.267 7.87387C16.1072 8.63863 15.5982 9.28536 14.8334 9.69602C13.4981 10.4141 12.3867 10.3157 11.6416 10.0673C11.6465 10.0846 11.6489 10.1042 11.6539 10.1214C11.6809 10.2444 11.735 10.4165 11.7989 10.6157C12.2342 11.9633 13.0432 14.1026 9.92515 17.1445ZM11.7326 7.91567C11.8752 8.01895 12.0252 8.10502 12.1801 8.16649C12.6965 8.37305 13.2596 8.3042 13.899 7.95993C14.2752 7.75829 14.3195 7.5419 14.3342 7.47058C14.3785 7.25665 14.3047 6.98369 14.1449 6.77959C14.0047 6.60008 13.8424 6.50664 13.6481 6.48697C13.2793 6.455 12.7801 6.68861 12.2809 7.1337C12.0424 7.34763 11.8604 7.61075 11.7326 7.91567Z" fill="#F44336"/>
<path d="M14.196 17.5445L12.6689 17.5027C12.6689 17.5027 13.3944 13.4059 15.7428 12.7174C16.1829 12.5895 16.6649 12.4592 17.1493 12.3879C17.437 12.3436 17.892 12.2772 18.1157 12.1936C18.1674 11.8075 18.0051 11.3157 17.8231 10.7575C17.6805 10.3247 17.5329 9.87963 17.4542 9.39273C17.3018 8.44354 17.5551 7.60501 18.1674 7.02713C18.9149 6.3263 20.1223 6.10253 21.4846 6.41237C22.2617 6.58942 22.8346 6.97057 23.3387 7.305C24.0593 7.78452 24.4797 8.02796 25.3601 7.43533C26.4249 6.71729 25.033 3.9066 24.2929 2.28363L27.0544 1.1328C27.4257 1.94428 29.2183 6.11974 28.0355 8.50256C27.6372 9.30421 26.9511 9.83536 26.0511 10.0345C24.0937 10.4723 22.9478 9.70995 22.1117 9.15421C21.7158 8.89109 21.3691 8.68453 20.9928 8.57633C18.3789 7.83124 22.0281 11.6772 20.319 13.4059C19.2936 14.4412 16.7878 14.7141 16.6256 14.7535C15.0124 15.142 14.196 17.5445 14.196 17.5445Z" fill="#F48FB1"/>
<path d="M9.57719 8.55414C9.53046 9.09513 9.50833 9.41726 9.6485 10.1206C10.3247 10.6173 11.7977 10.6173 11.7977 10.6173C11.7338 10.4181 11.6772 10.246 11.6526 10.123C11.6477 10.1058 11.6452 10.0861 11.6403 10.0689C10.1428 9.32136 9.57719 8.55414 9.57719 8.55414Z" fill="#C92B27"/>
<path d="M6.51357 10.9752L3.97092 9.72848L5.23733 7.89895L7.23161 9.21946L6.51357 10.9752Z" fill="#FFC107"/>
<path d="M2.76643 7.52531C1.46805 7.35072 0.145084 6.24906 0 6.12365L1.27625 4.62609C1.66232 4.95315 2.48118 5.50151 3.02955 5.57529L2.76643 7.52531Z" fill="#FB8C00"/>
<path d="M5.05754 4.24536L3.18866 3.63306C3.4026 2.97895 3.45915 2.27321 3.3485 1.59205L5.29114 1.27975C5.45098 2.26829 5.36983 3.29371 5.05754 4.24536Z" fill="#03A9F4"/>
<path d="M16.7302 2.78606L18.652 2.36567L19.2069 4.90243L17.2851 5.32283L16.7302 2.78606Z" fill="#FB8C00"/>
<path d="M21.4963 3.38575L20.1439 1.95705C20.8521 1.28573 21.0144 0.407846 21.0144 0.39801L22.957 0.715227C22.9324 0.870147 22.6841 2.26197 21.4963 3.38575Z" fill="#FFC107"/>
<path d="M22.2487 10.9636L23.9668 10.4267L24.5537 12.3044L22.8355 12.8414L22.2487 10.9636Z" fill="#FB8C00"/>
<path d="M22.7486 26.8102L20.7937 26.579C20.8773 25.8831 20.3584 25.0298 20.2158 24.8405L21.7896 23.6601C21.9076 23.815 22.9331 25.2339 22.7486 26.8102Z" fill="#F44336"/>
<path d="M28.3602 24.3184C27.625 24.2078 26.8725 24.1635 26.1299 24.1906L26.0635 22.2233C26.9266 22.1938 27.7996 22.243 28.6529 22.3733L28.3602 24.3184Z" fill="#FB8C00"/>
<path d="M25.716 27.0248L27.0982 25.6249L29.0003 27.503L27.6181 28.9029L25.716 27.0248Z" fill="#F48FB1"/>
<path d="M21.6548 14.5886L23.0761 16.2137L21.451 17.635L20.0297 16.0099L21.6548 14.5886Z" fill="#F44336"/>
<defs>
<linearGradient id="paint0_linear_1_1730" x1="17.0514" y1="14.2226" x2="9.73152" y2="18.6146" gradientUnits="userSpaceOnUse">
<stop offset="0.0235" stop-color="#8F4700"/>
<stop offset="1" stop-color="#703E2D"/>
</linearGradient>
</defs>
</svg>
