<svg width="18" height="18" viewBox="0 0 18 18" fill="none" xmlns="http://www.w3.org/2000/svg">
<path fill-rule="evenodd" clip-rule="evenodd" d="M8.1 0C12.5735 0 16.2 3.62649 16.2 8.1C16.2 10.0123 15.5373 11.7698 14.4291 13.1555L17.7364 16.4636C18.0879 16.8151 18.0879 17.3849 17.7364 17.7364C17.412 18.0608 16.9015 18.0858 16.5484 17.8113L16.4636 17.7364L13.1555 14.4291C11.7698 15.5373 10.0123 16.2 8.1 16.2C3.62649 16.2 0 12.5735 0 8.1C0 3.62649 3.62649 0 8.1 0ZM8.1 1.8C4.62061 1.8 1.8 4.62061 1.8 8.1C1.8 11.5794 4.62061 14.4 8.1 14.4C11.5794 14.4 14.4 11.5794 14.4 8.1C14.4 4.62061 11.5794 1.8 8.1 1.8Z" fill="#323232" fill-opacity="0.54"/>
</svg>
